<svg xmlns="http://www.w3.org/2000/svg" version="1.1" xmlns:xlink="http://www.w3.org/1999/xlink" xmlns:svgjs="http://svgjs.dev/svgjs" width="2000" height="333" viewBox="0 0 2000 333"><g transform="matrix(1,0,0,1,-1.2121212121212466,1.2343636484328044)"><svg viewBox="0 0 396 66" data-background-color="#ffffff" preserveAspectRatio="xMidYMid meet" height="333" width="2000" xmlns="http://www.w3.org/2000/svg" xmlns:xlink="http://www.w3.org/1999/xlink"><g id="tight-bounds" transform="matrix(1,0,0,1,0.2400000000000091,-0.24464865104073397)"><svg viewBox="0 0 395.52 66.48929730208147" height="66.48929730208147" width="395.52"><g><svg viewBox="0 0 395.52 66.48929730208147" height="66.48929730208147" width="395.52"><g><svg viewBox="0 0 491.62084538233984 82.64442897584703" height="66.48929730208147" width="395.52"><g><rect width="5.207224543635363" height="82.64442897584703" x="77.2621429757847" y="0" fill="#ffffff" opacity="1" stroke-width="0" stroke="transparent" fill-opacity="1" class="rect-o-0" data-fill-palette-color="primary" rx="1%" id="o-0" data-palette-color="#6936f5"></rect></g><g transform="matrix(1,0,0,1,96.10084538233986,0.2055831566563313)"><svg viewBox="0 0 395.52 82.23326266253437" height="82.23326266253437" width="395.52"><g id="textblocktransform"><svg viewBox="0 0 395.52 82.23326266253437" height="82.23326266253437" width="395.52" id="textblock"><g><svg viewBox="0 0 395.52 57.741904568527914" height="57.741904568527914" width="395.52"><g transform="matrix(1,0,0,1,0,0)"><svg width="395.52" viewBox="1.9000000953674316 -34.75 246.24000549316406 35.95000076293945" height="57.741904568527914" data-palette-color="#6936f5"><path d="M11.05 0.05Q10.35 0.05 10-0.9L10-0.9Q9.25-2.55 9.25-6.9L9.25-6.9Q9.25-11.1 9.4-16.55L9.4-16.55Q9.45-18.3 9.45-21.95L9.45-21.95 9.3-22.15 3.75-22.15Q3.1-22.15 2.73-22.88 2.35-23.6 2.15-24.9L2.15-24.9Q1.9-26.4 1.9-29.2L1.9-29.2 1.9-29.9Q1.9-30.4 1.95-30.7L1.95-30.7 1.95-31.45 1.95-31.9Q1.95-32.2 2.25-32.43 2.55-32.65 2.95-32.75L2.95-32.75Q3.45-32.9 4.45-32.9L4.45-32.9 8.25-32.9Q9.5-32.9 10.15-32.85L10.15-32.85 12-32.8 30-32.8Q31.95-32.8 32.55-32.75L32.55-32.75Q32.8-32.7 33.25-32.65 33.7-32.6 33.9-32.45L33.9-32.45Q34.25-32.3 34.33-32.08 34.4-31.85 34.4-31.4L34.4-31.4 34.4-23.15Q34.4-22.6 33.95-22.4L33.95-22.4Q33.65-22.3 33.15-22.3L33.15-22.3 31.55-22.3 29.9-22.3Q28.75-22.3 28.15-22.4L28.15-22.4 26.65-22.4Q26.2-22.4 26.15-22.2L26.15-22.2Q26.15-22.15 26.1-22.08 26.05-22 26.05-21.9L26.05-21.9 26.05-21.15 26.05-19.45Q26.05-18.7 26-18.3L26-18.3Q26-16.85 25.8-11.95L25.8-11.95 25.7-10.45Q25.6-8.35 25.5-7.4L25.5-7.4 25.5-2.65Q25.5-0.95 24.8-0.5L24.8-0.5Q24.15-0.25 23.9-0.2L23.9-0.2 22.65-0.15Q20.7-0.15 19.9-0.05L19.9-0.05 14.65 0Q13.65 0.05 11.05 0.05L11.05 0.05ZM40.55 0.05Q40.2 0.05 39.9-0.23 39.6-0.5 39.45-0.95L39.45-0.95Q39.25-1.85 39.15-2.95L39.15-2.95Q39.1-3.3 39.1-3.9L39.1-3.9 39.1-4.55 39.15-10.75Q39.15-13.9 39.3-16.95L39.3-16.95 39.3-32.75Q39.3-33.25 39.95-33.25L39.95-33.25Q43.4-33.25 45.1-33.3L45.1-33.3 50.1-33.3Q50.25-33.3 50.35-33.35 50.45-33.4 50.6-33.4L50.6-33.4Q51.25-33.5 52.4-33.45L52.4-33.45Q53.25-33.45 54.2-33.3L54.2-33.3Q54.5-33.1 54.65-33.2L54.65-33.2Q54.75-33.2 55.05-33.3L55.05-33.3Q55.8-33.3 56.22-33.2 56.65-33.1 56.9-32.75L56.9-32.75Q57.15-32.3 57.3-31.65L57.3-31.65Q57.35-31.15 57.35-29.55L57.35-29.55 57.35-19.8 57.35-19.05Q57.3-18.65 57.3-17.25L57.3-17.25Q57.3-15.75 57.2-14.9L57.2-14.9 57.15-12.65Q57.1-11.9 57.1-10.75L57.1-10.75 57.05-9.95 57.05-6.75Q57.05-3.75 56.8-1.65L56.8-1.65Q56.8-0.95 56.45-0.25L56.45-0.25Q55.55-0.25 53.85-0.15L53.85-0.15Q53.05-0.15 52.8-0.05L52.8-0.05 52.3-0.05 52.15-0.05Q51.8-0.05 51.8-0.15L51.8-0.15Q51.4-0.25 51.35-0.25L51.35-0.25 50.95-0.05 46.35-0.05Q46.3 0 45.55 0L45.55 0 43.65 0 41.8 0 40.55 0.05ZM80.3 1.2Q77 1.2 74.8 0.9L74.8 0.9Q71.95 0.5 69.65-0.55L69.65-0.55Q69.34-0.7 68.77-1.03 68.2-1.35 67.8-1.65L67.8-1.65Q66.15-3.05 65.09-4.8L65.09-4.8Q64.25-5.7 63.55-7.3L63.55-7.3Q62.2-10.8 62.2-15.65L62.2-15.65Q62.2-21.35 64.55-25.65L64.55-25.65Q66.59-29.75 70.02-32.08 73.45-34.4 77.8-34.7L77.8-34.7 78.4-34.75 79.05-34.75Q82.95-34.75 87.45-33.15L87.45-33.15Q87.84-32.95 89.2-32.35 90.55-31.75 91.7-31L91.7-31 90.8-24.5 87.84-25.25Q86.25-25.65 84.84-25.65L84.84-25.65Q82.05-25.65 80.65-23.55L80.65-23.55Q79.15-21.35 79.15-16.4L79.15-16.4Q79.15-14.8 79.3-14.15L79.3-14.15Q79.5-11 80.7-9.5L80.7-9.5Q81.84-8.2 83.45-8.2L83.45-8.2Q84.95-8.2 86.8-9.15L86.8-9.15Q88.4-9.9 90.3-11.2L90.3-11.2 90.8-3Q88.84-1.2 85.8 0.05L85.8 0.05Q82.9 1.2 80.3 1.2L80.3 1.2ZM123.34 0.9L122.64 0.4Q122.34 0.05 122.34 0L122.34 0 117.09-6.05Q116.94-6.2 116.59-6.65 116.24-7.1 115.94-7.4L115.94-7.4 115.19-8.15Q114.84-8.4 114.74-8.4L114.74-8.4Q114.54-8.4 114.44-8.28 114.34-8.15 114.34-8L114.34-8 114.34-7.3 114.34-6.2Q114.34-5.4 114.24-4.95L114.24-4.95 114.24-3.65Q114.19-3.2 114.19-2.55L114.19-2.55 114.19-1.9 114.19-1.15 114.19-0.95Q114.19-0.45 113.84-0.4L113.84-0.4Q113.59-0.2 113.09-0.3L113.09-0.3Q110.49-0.2 109.34-0.2L109.34-0.2 102.94-0.25 102.09-0.25 101.09-0.25Q100.44-0.25 100.19-0.3L100.19-0.3 99.84-0.3 97.59-0.5 97.44-0.9Q97.39-0.9 97.39-1.45L97.39-1.45Q97.39-2.3 97.34-2.9L97.34-2.9 97.34-4.9Q97.24-5.65 97.24-7.15L97.24-7.15 97.14-11Q97.09-12.25 96.89-14.75L96.89-14.75 96.84-16Q96.74-17.7 96.74-18.5L96.74-18.5 96.74-19Q96.84-19.3 96.84-19.9L96.84-19.9Q96.89-20.55 96.89-21.4L96.89-21.4 96.84-22.4Q96.84-22.75 96.79-22.98 96.74-23.2 96.74-23.3L96.74-23.3Q96.74-23.4 96.79-23.9 96.84-24.4 96.84-24.9L96.84-24.9Q96.89-25.5 96.89-26.4L96.89-26.4 96.89-27.15 96.89-28.15Q96.84-29 96.84-30.65L96.84-30.65Q96.74-31 96.74-31.65L96.74-31.65 96.74-32.15Q96.59-33.3 97.94-33.5L97.94-33.5Q98.34-33.65 99.09-33.65L99.09-33.65 100.19-33.65 105.74-33.65 109.84-33.65 112.49-33.65 114.09-33.65Q114.79-33.65 114.94-32.8L114.94-32.8Q114.99-32.65 114.99-32.15L114.99-32.15 114.99-31.4Q114.99-30.15 114.89-27.65L114.89-27.65 114.84-26.3Q114.74-25 114.74-24.5L114.74-24.5Q115.34-24.5 115.84-24.8L115.84-24.8Q116.19-25.15 116.19-25.15L116.19-25.15Q116.29-25.2 116.42-25.33 116.54-25.45 116.64-25.55L116.64-25.55Q116.84-25.65 117.59-26.4L117.59-26.4Q118.84-27.65 121.69-30.25L121.69-30.25Q124.44-32.85 125.99-34.05L125.99-34.05Q126.94-34.7 127.19-34.75L127.19-34.75Q127.29-34.75 127.54-34.5 127.79-34.25 127.89-34.15L127.89-34.15Q127.89-34.15 128.34-33.7L128.34-33.7Q128.44-33.45 128.59-33.4L128.59-33.4 128.89-33.05Q129.34-32.7 129.49-32.45L129.49-32.45 130.09-31.9Q130.24-31.75 130.34-31.63 130.44-31.5 130.49-31.45L130.49-31.45Q130.79-30.95 132.09-29.3L132.09-29.3Q133.09-28.15 133.59-27.05L133.59-27.05 133.59-26.95Q133.59-26.25 132.19-24.75L132.19-24.75 131.09-23.65Q130.49-23.1 130.24-22.8L130.24-22.8Q130.19-22.8 130.09-22.7 129.99-22.6 129.84-22.45L129.84-22.45 127.84-20.9Q127.84-20.9 126.84-19.9L126.84-19.9 125.94-19.2Q125.84-19.15 125.57-18.93 125.29-18.7 125.09-18.65L125.09-18.65Q124.94-18.55 124.74-18.43 124.54-18.3 124.49-18.2L124.49-18.2Q124.39-18.15 124.39-17.75L124.39-17.75Q124.39-16.95 125.19-16.25L125.19-16.25Q125.54-15.85 125.89-15.65L125.89-15.65 126.59-15.05Q127.64-14 127.64-14L127.64-14Q128.64-13.15 131.24-10.75L131.24-10.75Q133.24-8.95 134.39-7.5L134.39-7.5Q134.89-6.75 134.89-6.4L134.89-6.4Q134.89-6.1 134.82-5.9 134.74-5.7 134.49-5.45L134.49-5.45Q133.49-4.6 132.64-4.2L132.64-4.2Q131.79-3.75 130.99-3.08 130.19-2.4 129.44-1.75L129.44-1.75Q128.79-1.15 127.94-0.65L127.94-0.65 126.94-0.15Q126.94-0.15 126.49 0.15L126.49 0.15Q126.04 0.45 125.84 0.65L125.84 0.65Q125.09 1.1 124.29 1.1L124.29 1.1Q123.84 1.1 123.34 0.9L123.34 0.9ZM143.64 0Q143.39 0 142.89-0.08 142.39-0.15 141.69-0.2L141.69-0.2 140.64-0.45Q140.39-0.5 140.27-0.58 140.14-0.65 140.19-0.7L140.19-0.7Q140.19-2 140.04-4.15L140.04-4.15Q140.04-4.9 139.99-5.48 139.94-6.05 139.89-6.45L139.89-6.45 139.79-8.6Q139.79-9.45 139.69-10.75L139.69-10.75 139.64-12.3Q139.64-14.2 139.59-15.25L139.59-15.25Q139.54-16.3 139.54-19.65L139.54-19.65Q139.54-22.8 139.59-26.15 139.64-29.5 139.89-32.5L139.89-32.5Q139.89-33.05 141.09-33.4L141.09-33.4Q141.84-33.5 143.59-33.5L143.59-33.5Q147.64-33.5 149.54-33.65L149.54-33.65Q155.44-33.75 158.44-33.75L158.44-33.75 160.64-33.75Q164.74-33.65 166.94-33.45L166.94-33.45Q167.74-33.45 168.09-31.55L168.09-31.55Q168.24-31.2 168.44-29.75L168.44-29.75Q168.59-29 168.84-27.9L168.84-27.9Q168.89-27.6 168.87-27.33 168.84-27.05 168.84-27L168.84-27Q168.79-26.5 168.29-26.5L168.29-26.5Q168.09-26.55 167.69-26.55L167.69-26.55Q165.59-26.55 162.54-26.2L162.54-26.2 159.89-26Q158.24-25.8 157.29-25.75L157.29-25.75Q157.14-25.75 156.89-25.15L156.89-25.15Q156.69-24.5 156.44-22.15L156.44-22.15 156.34-20.9Q156.34-20.25 156.49-20.08 156.64-19.9 157.14-19.9L157.14-19.9 161.59-19.9Q163.54-19.9 166.04-19.65L166.04-19.65 166.64-19.65Q167.29-19.5 167.44-19.15L167.44-19.15Q167.64-18.85 167.69-18.5L167.69-18.5 167.89-14.05 167.89-13.9Q167.89-13.05 166.09-12.9L166.09-12.9Q165.04-12.65 162.09-12.65L162.09-12.65Q159.54-12.65 158.79-12.7L158.79-12.7Q157.34-12.7 157.04-12.65L157.04-12.65Q156.49-12.5 156.34-12.08 156.19-11.65 156.19-10.65L156.19-10.65Q156.19-10 156.09-8.8L156.09-8.8Q156.04-8.2 156.04-6.9L156.04-6.9Q159.29-6.9 160.84-7L160.84-7Q162.54-7.15 165.64-7.15L165.64-7.15Q165.84-7.15 166.04-6.8L166.04-6.8Q166.29-6.3 166.84-4.55L166.84-4.55Q167.14-3.55 167.44-2.05L167.44-2.05Q167.54-1.7 167.54-1.3L167.54-1.3Q167.54-0.25 166.54-0.25L166.54-0.25Q165.24-0.25 163.04-0.15L163.04-0.15Q161.89-0.05 159.44-0.05L159.44-0.05Q154.19-0.05 151.54 0L151.54 0 143.64 0ZM182.34 0.05Q181.64 0.05 181.29-0.9L181.29-0.9Q180.54-2.55 180.54-6.9L180.54-6.9Q180.54-11.1 180.69-16.55L180.69-16.55Q180.74-18.3 180.74-21.95L180.74-21.95 180.59-22.15 175.04-22.15Q174.39-22.15 174.01-22.88 173.64-23.6 173.44-24.9L173.44-24.9Q173.19-26.4 173.19-29.2L173.19-29.2 173.19-29.9Q173.19-30.4 173.24-30.7L173.24-30.7 173.24-31.45 173.24-31.9Q173.24-32.2 173.54-32.43 173.84-32.65 174.24-32.75L174.24-32.75Q174.74-32.9 175.74-32.9L175.74-32.9 179.54-32.9Q180.79-32.9 181.44-32.85L181.44-32.85 183.29-32.8 201.29-32.8Q203.24-32.8 203.84-32.75L203.84-32.75Q204.09-32.7 204.54-32.65 204.99-32.6 205.19-32.45L205.19-32.45Q205.54-32.3 205.61-32.08 205.69-31.85 205.69-31.4L205.69-31.4 205.69-23.15Q205.69-22.6 205.24-22.4L205.24-22.4Q204.94-22.3 204.44-22.3L204.44-22.3 202.84-22.3 201.19-22.3Q200.04-22.3 199.44-22.4L199.44-22.4 197.94-22.4Q197.49-22.4 197.44-22.2L197.44-22.2Q197.44-22.15 197.39-22.08 197.34-22 197.34-21.9L197.34-21.9 197.34-21.15 197.34-19.45Q197.34-18.7 197.29-18.3L197.29-18.3Q197.29-16.85 197.09-11.95L197.09-11.95 196.99-10.45Q196.89-8.35 196.79-7.4L196.79-7.4 196.79-2.65Q196.79-0.95 196.09-0.5L196.09-0.5Q195.44-0.25 195.19-0.2L195.19-0.2 193.94-0.15Q191.99-0.15 191.19-0.05L191.19-0.05 185.94 0Q184.94 0.05 182.34 0.05L182.34 0.05ZM229.34 1.2Q223.39 1.2 219.94 0.25L219.94 0.25Q215.14-1 212.64-4.4L212.64-4.4Q209.74-8.45 209.74-15.65L209.74-15.65Q209.74-20.8 210.89-24.4 212.04-28 214.44-30.3L214.44-30.3Q216.84-32.6 220.61-33.68 224.39-34.75 229.84-34.75L229.84-34.75Q234.09-34.75 237.84-33.45L237.84-33.45Q242.44-31.8 244.99-28.4L244.99-28.4Q248.14-24.35 248.14-17.75L248.14-17.75Q248.14-10.05 245.84-5.75L245.84-5.75Q243.54-1.8 239.19-0.15L239.19-0.15Q235.64 1.2 229.34 1.2L229.34 1.2ZM228.94-3.65Q229.54-3.65 229.89-4.4L229.89-4.4Q230.64-6 230.94-9.45L230.94-9.45Q231.24-12.6 231.24-15.4L231.24-15.4 231.24-17.4 231.24-18.65Q231.24-20.85 230.94-24L230.94-24Q230.64-27.4 229.89-29.15L229.89-29.15Q229.49-30 228.94-30L228.94-30Q227.84-30 227.34-27.9L227.34-27.9Q226.84-25 226.84-22.65L226.84-22.65Q226.69-20.65 226.69-16.4L226.69-16.4Q226.69-13.55 226.84-11.7L226.84-11.7Q226.84-9.35 227.34-6.25L227.34-6.25Q227.84-3.65 228.94-3.65L228.94-3.65Z" opacity="1" transform="matrix(1,0,0,1,0,0)" fill="#ffffff" class="undefined-text-0" data-fill-palette-color="primary" id="text-0"></path></svg></g></svg></g><g transform="matrix(1,0,0,1,0,71.37338243144771)"><svg viewBox="0 0 232.20979200000002 10.859880231086658" height="10.859880231086658" width="232.20979200000002"><g transform="matrix(1,0,0,1,0,0)"><svg width="232.20979200000002" viewBox="1.2000000476837158 -35.790000915527344 780.8900146484375 36.52000045776367" height="10.859880231086658" data-palette-color="#6936f5"><path d="M25.85-35.6L38.99-35.6 36.74 0.24 25.61 0.73 25.71-18.16 20.68-2.93 16.38-2.93 12.52-16.55 12.48-0.73 1.2-0.39 1.68-34.13 14.23-34.62 19.21-18.46 25.85-35.6ZM61.62-34.96L71.14-2.1 59.03-0.54 57.57-6.05 52-6.05 50.78-0.54 38.33-1.76 48.04-34.28 61.62-34.96ZM53.02-13.53L56.69-13.53 54.83-22.02 53.02-13.53ZM89.84-34.47L101.66-31.54 90.86-18.7 100.78-1.9 89.45 0.1 82.03-9.96 81.64-0.39 71.48 0 72.26-34.96 83.64-34.33 82.76-24.27 89.84-34.47ZM127.07-19.73L127.07-19.73Q127.07-17.6 126.77-15.48L126.77-15.48Q122.6-15.21 118.47-14.61 114.35-14.01 110.22-13.43L110.22-13.43Q110.86-11.67 112.21-10.62 113.57-9.57 115.45-9.57L115.45-9.57Q116.42-9.57 117.58-9.94 118.74-10.3 119.89-10.85 121.04-11.4 122.09-12.04 123.14-12.67 123.89-13.18L123.89-13.18 122.72-2.1Q121.77-1.37 120.66-0.85 119.55-0.34 118.35-0.02 117.16 0.29 115.93 0.44 114.71 0.59 113.54 0.59L113.54 0.59Q111.13 0.59 109.12-0.07 107.12-0.73 105.5-1.92 103.87-3.1 102.65-4.71 101.43-6.32 100.63-8.23 99.82-10.13 99.41-12.26 98.99-14.38 98.99-16.55L98.99-16.55Q98.99-18.82 99.41-21.09 99.82-23.36 100.66-25.46 101.51-27.56 102.79-29.36 104.07-31.15 105.78-32.5 107.49-33.84 109.65-34.59 111.81-35.35 114.42-35.35L114.42-35.35Q116.59-35.35 118.39-34.75 120.18-34.16 121.59-33.09 122.99-32.03 124.03-30.57 125.07-29.1 125.74-27.36 126.41-25.61 126.74-23.67 127.07-21.73 127.07-19.73ZM117.3-20.46L117.3-21Q117.3-21.68 117.16-22.4 117.01-23.12 116.68-23.71 116.35-24.29 115.81-24.67 115.28-25.05 114.47-25.05L114.47-25.05Q113.49-25.05 112.75-24.52 112-24 111.47-23.21 110.93-22.41 110.59-21.48 110.25-20.56 110.08-19.78L110.08-19.78 117.3-20.46ZM156.8-33.89L168.52-33.06 157.04-14.31 157.38-0.49 144.84-0.49 145.13-14.21 136.19-32.32 148.64-33.89 152.55-23.34 156.8-33.89ZM196.2-18.7L196.2-18.7Q196.2-16.48 195.69-14.42 195.18-12.35 194.21-10.55 193.25-8.74 191.87-7.24 190.49-5.74 188.77-4.66 187.05-3.59 185.02-2.99 182.99-2.39 180.72-2.39L180.72-2.39Q178.53-2.39 176.54-2.95 174.55-3.52 172.81-4.53 171.08-5.54 169.67-6.97 168.27-8.4 167.28-10.14 166.29-11.89 165.74-13.89 165.19-15.89 165.19-18.07L165.19-18.07Q165.19-20.19 165.71-22.23 166.22-24.27 167.18-26.07 168.15-27.88 169.52-29.39 170.88-30.91 172.58-32.01 174.28-33.11 176.25-33.72 178.23-34.33 180.43-34.33L180.43-34.33Q183.97-34.33 186.89-33.23 189.8-32.13 191.87-30.09 193.93-28.05 195.07-25.16 196.2-22.27 196.2-18.7ZM185.36-18.07L185.36-18.07Q185.36-19.12 185.06-20.1 184.75-21.09 184.16-21.86 183.58-22.63 182.71-23.11 181.85-23.58 180.72-23.58L180.72-23.58Q179.57-23.58 178.67-23.17 177.77-22.75 177.12-22.03 176.47-21.31 176.13-20.35 175.79-19.38 175.79-18.31L175.79-18.31Q175.79-17.29 176.08-16.26 176.38-15.23 176.96-14.4 177.55-13.57 178.42-13.06 179.28-12.55 180.43-12.55L180.43-12.55Q181.58-12.55 182.49-13 183.41-13.45 184.04-14.22 184.68-14.99 185.02-15.99 185.36-16.99 185.36-18.07ZM227.01-34.38L227.01-34.38Q225.91-25.78 225.13-17.27 224.35-8.76 223.64-0.15L223.64-0.15 213.63 0.59 214.07-3.17Q213.58-2.61 212.93-2.2 212.29-1.78 211.55-1.53 210.82-1.27 210.04-1.16 209.26-1.05 208.55-1.07L208.55-1.07Q206.89-1.1 205.43-1.72 203.96-2.34 202.74-3.38 201.52-4.42 200.54-5.8 199.57-7.18 198.9-8.7 198.22-10.23 197.87-11.82 197.52-13.4 197.52-14.89L197.52-14.89Q197.52-17.09 197.6-19.45 197.69-21.8 197.91-24.17 198.13-26.54 198.48-28.86 198.84-31.18 199.37-33.3L199.37-33.3Q202.35-33.15 205.35-33.03 208.36-32.91 211.34-32.96L211.34-32.96Q210.77-30.83 210.22-28.7 209.67-26.56 209.24-24.4 208.8-22.24 208.53-20.07 208.26-17.9 208.26-15.67L208.26-15.67Q208.26-15.16 208.31-14.21 208.36-13.26 208.56-12.33 208.77-11.4 209.2-10.71 209.63-10.01 210.41-10.01L210.41-10.01Q211.34-10.01 212.07-10.8 212.8-11.6 213.36-12.94 213.92-14.28 214.33-16.04 214.73-17.8 215.01-19.71 215.29-21.63 215.46-23.58 215.63-25.54 215.72-27.26 215.8-28.98 215.84-30.35 215.88-31.71 215.88-32.47L215.88-32.47Q215.88-32.96 215.85-33.42 215.83-33.89 215.78-34.38L215.78-34.38Q217.37-34.33 218.93-34.3 220.49-34.28 222.08-34.28L222.08-34.28Q223.3-34.28 224.53-34.29 225.76-34.3 227.01-34.38ZM257.08-23.54L257.08-23.54Q257.08-21.63 256.75-20.08 256.43-18.53 255.72-17.24 255.01-15.94 253.89-14.84 252.76-13.75 251.18-12.74L251.18-12.74 256.99-2.39 246-0.24 242.24-10.64 239.21-10.55 238.77-0.39 228.28-0.39Q228.4-5.96 228.51-11.47 228.62-16.99 228.76-22.56L228.76-22.56Q228.81-25.37 228.86-28.13 228.91-30.88 229.06-33.69L229.06-33.69Q230.77-34.33 232.43-34.74 234.09-35.16 235.76-35.39 237.43-35.62 239.15-35.71 240.87-35.79 242.68-35.79L242.68-35.79Q245.46-35.79 248.06-35.02 250.66-34.25 252.67-32.71 254.67-31.18 255.88-28.88 257.08-26.59 257.08-23.54ZM246.15-22.75L246.15-22.75Q246.15-23.78 245.87-24.63 245.59-25.49 245.04-26.11 244.49-26.73 243.67-27.09 242.85-27.44 241.75-27.44L241.75-27.44Q241.26-27.44 240.8-27.38 240.34-27.32 239.9-27.2L239.9-27.2 239.51-18.12 240.09-18.12Q241.14-18.12 242.23-18.38 243.31-18.65 244.18-19.21 245.05-19.78 245.6-20.65 246.15-21.53 246.15-22.75ZM298.71-18.7L298.71-18.7Q298.71-16.48 298.19-14.42 297.68-12.35 296.72-10.55 295.75-8.74 294.37-7.24 292.99-5.74 291.27-4.66 289.55-3.59 287.52-2.99 285.5-2.39 283.23-2.39L283.23-2.39Q281.03-2.39 279.04-2.95 277.05-3.52 275.32-4.53 273.58-5.54 272.18-6.97 270.78-8.4 269.79-10.14 268.8-11.89 268.25-13.89 267.7-15.89 267.7-18.07L267.7-18.07Q267.7-20.19 268.21-22.23 268.73-24.27 269.69-26.07 270.65-27.88 272.02-29.39 273.39-30.91 275.08-32.01 276.78-33.11 278.76-33.72 280.74-34.33 282.93-34.33L282.93-34.33Q286.47-34.33 289.39-33.23 292.31-32.13 294.37-30.09 296.43-28.05 297.57-25.16 298.71-22.27 298.71-18.7ZM287.87-18.07L287.87-18.07Q287.87-19.12 287.56-20.1 287.26-21.09 286.67-21.86 286.08-22.63 285.22-23.11 284.35-23.58 283.23-23.58L283.23-23.58Q282.08-23.58 281.18-23.17 280.27-22.75 279.63-22.03 278.98-21.31 278.64-20.35 278.3-19.38 278.3-18.31L278.3-18.31Q278.3-17.29 278.59-16.26 278.88-15.23 279.47-14.4 280.05-13.57 280.92-13.06 281.79-12.55 282.93-12.55L282.93-12.55Q284.08-12.55 285-13 285.91-13.45 286.55-14.22 287.18-14.99 287.52-15.99 287.87-16.99 287.87-18.07ZM331.76-34.96L343.82-33.89 338.11-1.03 324.24-0.73 321.26-17.29 318.28-2 304.42-1.51 298.65-32.91 310.76-33.98 313.2-14.7 316.48-32.52 326-32.52 329.81-14.45 331.76-34.96ZM375.04-12.35L375.04-12.35Q375.04-9.59 374.98-6.9 374.92-4.2 374.8-1.46L374.8-1.46 360.74-1.71Q361.47-6.03 362.01-10.34 362.54-14.65 362.54-19.04L362.54-19.04Q362.54-19.36 362.52-20.07 362.49-20.78 362.42-21.67 362.35-22.56 362.21-23.5 362.08-24.44 361.85-25.22 361.62-26 361.29-26.5 360.96-27 360.49-27L360.49-27Q359.66-27 359.09-26.51 358.51-26.03 358.14-25.26 357.76-24.49 357.54-23.54 357.32-22.58 357.21-21.63 357.1-20.68 357.06-19.84 357.03-18.99 357.03-18.46L357.03-18.46Q356.9-14.14 356.83-9.88 356.76-5.62 356.64-1.27L356.64-1.27 344.18-0.73Q344.67-9.35 345.12-17.87 345.58-26.39 345.84-35.01L345.84-35.01 357.37-35.6 357.27-31.69Q357.95-32.52 358.75-33.25 359.54-33.98 360.44-34.51 361.35-35.03 362.36-35.34 363.37-35.64 364.5-35.64L364.5-35.64Q366.57-35.64 368.13-34.96 369.7-34.28 370.82-33.11 371.94-31.93 372.7-30.33 373.46-28.74 373.92-26.93 374.38-25.12 374.63-23.16 374.87-21.19 374.96-19.29 375.04-17.38 375.04-15.6 375.04-13.82 375.04-12.35ZM412.12-12.5L412.12-12.5Q412.12-9.16 410.96-6.73 409.8-4.3 407.79-2.72 405.78-1.15 403.08-0.4 400.38 0.34 397.28 0.34L397.28 0.34Q396.08 0.34 394.65 0.02 393.23-0.29 391.76-0.77 390.3-1.25 388.94-1.79 387.59-2.34 386.54-2.83L386.54-2.83 387.61-12.4Q389.69-11.16 392.21-10.51 394.74-9.86 397.18-9.86L397.18-9.86Q397.65-9.86 398.3-9.9 398.96-9.94 399.56-10.12 400.16-10.3 400.58-10.67 400.99-11.04 400.99-11.72L400.99-11.72Q400.99-12.18 400.7-12.51 400.4-12.84 399.94-13.05 399.48-13.26 398.89-13.37 398.3-13.48 397.74-13.53 397.18-13.57 396.69-13.57 396.21-13.57 395.91-13.57L395.91-13.57Q393.81-13.57 392.09-14.23 390.37-14.89 389.14-16.1 387.9-17.31 387.22-19.03 386.54-20.75 386.54-22.85L386.54-22.85Q386.54-25.73 387.7-28.02 388.86-30.3 390.8-31.9 392.74-33.5 395.25-34.35 397.77-35.21 400.45-35.21L400.45-35.21Q401.65-35.21 402.92-35.12 404.19-35.03 405.45-34.81 406.7-34.59 407.9-34.25 409.1-33.91 410.17-33.4L410.17-33.4 409.24-23.49Q407.58-24.05 405.76-24.43 403.94-24.8 402.21-24.8L402.21-24.8Q401.89-24.8 401.39-24.79 400.89-24.78 400.34-24.72 399.79-24.66 399.23-24.54 398.67-24.41 398.23-24.21 397.79-24 397.52-23.66 397.26-23.32 397.28-22.85L397.28-22.85Q397.3-22.31 397.68-22.02 398.06-21.73 398.66-21.59 399.26-21.46 399.98-21.46 400.7-21.46 401.41-21.5 402.11-21.53 402.72-21.57 403.33-21.61 403.72-21.58L403.72-21.58Q405.68-21.46 407.24-20.75 408.8-20.04 409.89-18.87 410.98-17.7 411.55-16.08 412.12-14.45 412.12-12.5ZM442.78-34.38L442.78-34.38Q441.69-25.78 440.9-17.27 440.12-8.76 439.42-0.15L439.42-0.15 429.41 0.59 429.85-3.17Q429.36-2.61 428.71-2.2 428.06-1.78 427.33-1.53 426.6-1.27 425.82-1.16 425.04-1.05 424.33-1.07L424.33-1.07Q422.67-1.1 421.2-1.72 419.74-2.34 418.52-3.38 417.3-4.42 416.32-5.8 415.34-7.18 414.67-8.7 414-10.23 413.65-11.82 413.29-13.4 413.29-14.89L413.29-14.89Q413.29-17.09 413.38-19.45 413.46-21.8 413.68-24.17 413.9-26.54 414.26-28.86 414.61-31.18 415.15-33.3L415.15-33.3Q418.13-33.15 421.13-33.03 424.13-32.91 427.11-32.96L427.11-32.96Q426.55-30.83 426-28.7 425.45-26.56 425.01-24.4 424.57-22.24 424.3-20.07 424.03-17.9 424.03-15.67L424.03-15.67Q424.03-15.16 424.08-14.21 424.13-13.26 424.34-12.33 424.55-11.4 424.97-10.71 425.4-10.01 426.18-10.01L426.18-10.01Q427.11-10.01 427.84-10.8 428.58-11.6 429.14-12.94 429.7-14.28 430.1-16.04 430.5-17.8 430.79-19.71 431.07-21.63 431.24-23.58 431.41-25.54 431.49-27.26 431.58-28.98 431.62-30.35 431.65-31.71 431.65-32.47L431.65-32.47Q431.65-32.96 431.63-33.42 431.6-33.89 431.55-34.38L431.55-34.38Q433.14-34.33 434.7-34.3 436.27-34.28 437.85-34.28L437.85-34.28Q439.07-34.28 440.31-34.29 441.54-34.3 442.78-34.38ZM472.69-22.51L472.69-22.51Q472.69-20.14 471.98-18.31 471.27-16.48 470.04-15.1 468.81-13.72 467.15-12.78 465.49-11.84 463.6-11.24 461.7-10.64 459.68-10.36 457.65-10.08 455.7-10.06L455.7-10.06 455.7 0.34 444.32 0.34Q444.32-2.44 444.33-5.08 444.34-7.71 444.36-10.31 444.37-12.92 444.38-15.55 444.39-18.19 444.42-21L444.42-21Q444.47-23.97 444.44-26.95 444.42-29.93 444.56-32.96L444.56-32.96Q447.69-33.89 450.81-34.35 453.94-34.81 457.26-34.81L457.26-34.81Q459.14-34.81 461.02-34.51 462.9-34.2 464.62-33.54 466.34-32.89 467.82-31.9 469.3-30.91 470.37-29.54 471.44-28.17 472.07-26.42 472.69-24.66 472.69-22.51ZM461.85-21.68L461.85-21.68Q461.85-23.27 460.89-24.16 459.92-25.05 458.38-25.05L458.38-25.05Q457.87-25.05 457.32-24.96 456.77-24.88 456.28-24.76L456.28-24.76 455.99-17.63Q456.33-17.58 456.65-17.58 456.97-17.58 457.31-17.58L457.31-17.58Q458.19-17.58 459.01-17.87 459.82-18.16 460.46-18.71 461.09-19.26 461.47-20.01 461.85-20.75 461.85-21.68ZM502.52-22.51L502.52-22.51Q502.52-20.14 501.81-18.31 501.1-16.48 499.87-15.1 498.64-13.72 496.98-12.78 495.32-11.84 493.43-11.24 491.53-10.64 489.51-10.36 487.48-10.08 485.53-10.06L485.53-10.06 485.53 0.34 474.15 0.34Q474.15-2.44 474.16-5.08 474.18-7.71 474.19-10.31 474.2-12.92 474.21-15.55 474.23-18.19 474.25-21L474.25-21Q474.3-23.97 474.27-26.95 474.25-29.93 474.4-32.96L474.4-32.96Q477.52-33.89 480.65-34.35 483.77-34.81 487.09-34.81L487.09-34.81Q488.97-34.81 490.85-34.51 492.73-34.2 494.45-33.54 496.17-32.89 497.65-31.9 499.13-30.91 500.2-29.54 501.28-28.17 501.9-26.42 502.52-24.66 502.52-22.51ZM491.68-21.68L491.68-21.68Q491.68-23.27 490.72-24.16 489.75-25.05 488.21-25.05L488.21-25.05Q487.7-25.05 487.15-24.96 486.6-24.88 486.11-24.76L486.11-24.76 485.82-17.63Q486.16-17.58 486.48-17.58 486.8-17.58 487.14-17.58L487.14-17.58Q488.02-17.58 488.84-17.87 489.65-18.16 490.29-18.71 490.92-19.26 491.3-20.01 491.68-20.75 491.68-21.68ZM534.09-18.7L534.09-18.7Q534.09-16.48 533.57-14.42 533.06-12.35 532.1-10.55 531.13-8.74 529.75-7.24 528.37-5.74 526.65-4.66 524.93-3.59 522.9-2.99 520.88-2.39 518.61-2.39L518.61-2.39Q516.41-2.39 514.42-2.95 512.43-3.52 510.7-4.53 508.96-5.54 507.56-6.97 506.16-8.4 505.17-10.14 504.18-11.89 503.63-13.89 503.08-15.89 503.08-18.07L503.08-18.07Q503.08-20.19 503.59-22.23 504.11-24.27 505.07-26.07 506.03-27.88 507.4-29.39 508.77-30.91 510.47-32.01 512.16-33.11 514.14-33.72 516.12-34.33 518.31-34.33L518.31-34.33Q521.85-34.33 524.77-33.23 527.69-32.13 529.75-30.09 531.82-28.05 532.95-25.16 534.09-22.27 534.09-18.7ZM523.25-18.07L523.25-18.07Q523.25-19.12 522.94-20.1 522.64-21.09 522.05-21.86 521.46-22.63 520.6-23.11 519.73-23.58 518.61-23.58L518.61-23.58Q517.46-23.58 516.56-23.17 515.65-22.75 515.01-22.03 514.36-21.31 514.02-20.35 513.68-19.38 513.68-18.31L513.68-18.31Q513.68-17.29 513.97-16.26 514.26-15.23 514.85-14.4 515.43-13.57 516.3-13.06 517.17-12.55 518.31-12.55L518.31-12.55Q519.46-12.55 520.38-13 521.29-13.45 521.93-14.22 522.56-14.99 522.9-15.99 523.25-16.99 523.25-18.07ZM564.41-23.54L564.41-23.54Q564.41-21.63 564.08-20.08 563.75-18.53 563.04-17.24 562.33-15.94 561.21-14.84 560.08-13.75 558.5-12.74L558.5-12.74 564.31-2.39 553.32-0.24 549.56-10.64 546.53-10.55 546.1-0.39 535.6-0.39Q535.72-5.96 535.83-11.47 535.94-16.99 536.09-22.56L536.09-22.56Q536.13-25.37 536.18-28.13 536.23-30.88 536.38-33.69L536.38-33.69Q538.09-34.33 539.75-34.74 541.41-35.16 543.08-35.39 544.75-35.62 546.47-35.71 548.19-35.79 550-35.79L550-35.79Q552.78-35.79 555.38-35.02 557.98-34.25 559.99-32.71 561.99-31.18 563.2-28.88 564.41-26.59 564.41-23.54ZM553.47-22.75L553.47-22.75Q553.47-23.78 553.19-24.63 552.91-25.49 552.36-26.11 551.81-26.73 550.99-27.09 550.17-27.44 549.07-27.44L549.07-27.44Q548.59-27.44 548.12-27.38 547.66-27.32 547.22-27.2L547.22-27.2 546.83-18.12 547.41-18.12Q548.46-18.12 549.55-18.38 550.64-18.65 551.5-19.21 552.37-19.78 552.92-20.65 553.47-21.53 553.47-22.75ZM565.33-34.38L591.94-34.42 591.7-24.07 584.42-23.78 583.54-1.12 573.24-0.59 572.31-23.24 565.04-22.85 565.33-34.38ZM628.12-12.5L628.12-12.5Q628.12-9.16 626.96-6.73 625.8-4.3 623.79-2.72 621.77-1.15 619.07-0.4 616.38 0.34 613.28 0.34L613.28 0.34Q612.08 0.34 610.65 0.02 609.22-0.29 607.76-0.77 606.29-1.25 604.94-1.79 603.58-2.34 602.53-2.83L602.53-2.83 603.61-12.4Q605.68-11.16 608.21-10.51 610.74-9.86 613.18-9.86L613.18-9.86Q613.64-9.86 614.3-9.9 614.96-9.94 615.56-10.12 616.16-10.3 616.57-10.67 616.99-11.04 616.99-11.72L616.99-11.72Q616.99-12.18 616.69-12.51 616.4-12.84 615.94-13.05 615.47-13.26 614.89-13.37 614.3-13.48 613.74-13.53 613.18-13.57 612.69-13.57 612.2-13.57 611.91-13.57L611.91-13.57Q609.81-13.57 608.09-14.23 606.37-14.89 605.13-16.1 603.9-17.31 603.22-19.03 602.53-20.75 602.53-22.85L602.53-22.85Q602.53-25.73 603.69-28.02 604.85-30.3 606.79-31.9 608.73-33.5 611.25-34.35 613.76-35.21 616.45-35.21L616.45-35.21Q617.65-35.21 618.91-35.12 620.18-35.03 621.44-34.81 622.7-34.59 623.9-34.25 625.09-33.91 626.17-33.4L626.17-33.4 625.24-23.49Q623.58-24.05 621.76-24.43 619.94-24.8 618.21-24.8L618.21-24.8Q617.89-24.8 617.39-24.79 616.89-24.78 616.34-24.72 615.79-24.66 615.23-24.54 614.67-24.41 614.23-24.21 613.79-24 613.52-23.66 613.25-23.32 613.28-22.85L613.28-22.85Q613.3-22.31 613.68-22.02 614.06-21.73 614.65-21.59 615.25-21.46 615.97-21.46 616.69-21.46 617.4-21.5 618.11-21.53 618.72-21.57 619.33-21.61 619.72-21.58L619.72-21.58Q621.67-21.46 623.24-20.75 624.8-20.04 625.88-18.87 626.97-17.7 627.55-16.08 628.12-14.45 628.12-12.5ZM647.65-33.89L659.37-33.06 647.89-14.31 648.23-0.49 635.68-0.49 635.98-14.21 627.04-32.32 639.49-33.89 643.4-23.34 647.65-33.89ZM683.19-12.5L683.19-12.5Q683.19-9.16 682.03-6.73 680.87-4.3 678.86-2.72 676.84-1.15 674.15-0.4 671.45 0.34 668.35 0.34L668.35 0.34Q667.15 0.34 665.72 0.02 664.3-0.29 662.83-0.77 661.37-1.25 660.01-1.79 658.66-2.34 657.61-2.83L657.61-2.83 658.68-12.4Q660.76-11.16 663.28-10.51 665.81-9.86 668.25-9.86L668.25-9.86Q668.71-9.86 669.37-9.9 670.03-9.94 670.63-10.12 671.23-10.3 671.64-10.67 672.06-11.04 672.06-11.72L672.06-11.72Q672.06-12.18 671.77-12.51 671.47-12.84 671.01-13.05 670.55-13.26 669.96-13.37 669.37-13.48 668.81-13.53 668.25-13.57 667.76-13.57 667.27-13.57 666.98-13.57L666.98-13.57Q664.88-13.57 663.16-14.23 661.44-14.89 660.21-16.1 658.97-17.31 658.29-19.03 657.61-20.75 657.61-22.85L657.61-22.85Q657.61-25.73 658.77-28.02 659.93-30.3 661.87-31.9 663.81-33.5 666.32-34.35 668.84-35.21 671.52-35.21L671.52-35.21Q672.72-35.21 673.99-35.12 675.26-35.03 676.51-34.81 677.77-34.59 678.97-34.25 680.16-33.91 681.24-33.4L681.24-33.4 680.31-23.49Q678.65-24.05 676.83-24.43 675.01-24.8 673.28-24.8L673.28-24.8Q672.96-24.8 672.46-24.79 671.96-24.78 671.41-24.72 670.86-24.66 670.3-24.54 669.74-24.41 669.3-24.21 668.86-24 668.59-23.66 668.32-23.32 668.35-22.85L668.35-22.85Q668.37-22.31 668.75-22.02 669.13-21.73 669.73-21.59 670.33-21.46 671.05-21.46 671.77-21.46 672.47-21.5 673.18-21.53 673.79-21.57 674.4-21.61 674.79-21.58L674.79-21.58Q676.75-21.46 678.31-20.75 679.87-20.04 680.96-18.87 682.04-17.7 682.62-16.08 683.19-14.45 683.19-12.5ZM683.41-34.38L710.02-34.42 709.78-24.07 702.5-23.78 701.62-1.12 691.32-0.59 690.39-23.24 683.12-22.85 683.41-34.38ZM738.17-19.73L738.17-19.73Q738.17-17.6 737.87-15.48L737.87-15.48Q733.7-15.21 729.57-14.61 725.45-14.01 721.32-13.43L721.32-13.43Q721.96-11.67 723.31-10.62 724.67-9.57 726.55-9.57L726.55-9.57Q727.52-9.57 728.68-9.94 729.84-10.3 730.99-10.85 732.14-11.4 733.19-12.04 734.24-12.67 734.99-13.18L734.99-13.18 733.82-2.1Q732.87-1.37 731.76-0.85 730.65-0.34 729.45-0.02 728.26 0.29 727.03 0.44 725.81 0.59 724.64 0.59L724.64 0.59Q722.23 0.59 720.22-0.07 718.22-0.73 716.6-1.92 714.97-3.1 713.75-4.71 712.53-6.32 711.73-8.23 710.92-10.13 710.51-12.26 710.09-14.38 710.09-16.55L710.09-16.55Q710.09-18.82 710.51-21.09 710.92-23.36 711.76-25.46 712.61-27.56 713.89-29.36 715.17-31.15 716.88-32.5 718.59-33.84 720.75-34.59 722.91-35.35 725.52-35.35L725.52-35.35Q727.69-35.35 729.49-34.75 731.28-34.16 732.69-33.09 734.09-32.03 735.13-30.57 736.17-29.1 736.84-27.36 737.51-25.61 737.84-23.67 738.17-21.73 738.17-19.73ZM728.4-20.46L728.4-21Q728.4-21.68 728.26-22.4 728.11-23.12 727.78-23.71 727.45-24.29 726.91-24.67 726.38-25.05 725.57-25.05L725.57-25.05Q724.59-25.05 723.85-24.52 723.1-24 722.57-23.21 722.03-22.41 721.69-21.48 721.35-20.56 721.18-19.78L721.18-19.78 728.4-20.46ZM782.09-16.55L782.09-16.55Q782.09-13.06 781.87-9.59 781.65-6.13 781.35-2.64L781.35-2.64 768.8-2.05Q769.37-6.3 769.82-10.56 770.27-14.82 770.27-19.09L770.27-19.09Q770.27-19.36 770.24-20.03 770.22-20.7 770.16-21.56 770.1-22.41 769.99-23.33 769.88-24.24 769.7-25.01 769.51-25.78 769.24-26.27 768.98-26.76 768.61-26.76L768.61-26.76Q767.75-26.76 767.27-26.11 766.78-25.46 766.55-24.56 766.31-23.66 766.27-22.72 766.22-21.78 766.22-21.19L766.22-21.19Q766.22-20.17 766.27-19.14 766.31-18.12 766.31-17.04L766.31-17.04Q766.31-13.26 766.13-9.5 765.95-5.74 765.68-1.95L765.68-1.95 754.11-1.51Q754.67-5.76 755.1-10 755.52-14.23 755.52-18.51L755.52-18.51Q755.52-18.77 755.5-19.48 755.47-20.19 755.41-21.07 755.35-21.95 755.23-22.9 755.11-23.85 754.93-24.65 754.74-25.44 754.47-25.95 754.2-26.46 753.81-26.46L753.81-26.46Q753.2-26.46 752.79-25.99 752.37-25.51 752.12-24.76 751.86-24 751.73-23.08 751.59-22.17 751.53-21.29 751.47-20.41 751.46-19.67 751.45-18.92 751.42-18.55L751.42-18.55 750.88-0.73 738.58-0.73Q738.97-4.86 739.37-9.01 739.78-13.16 740.08-17.3 740.39-21.44 740.58-25.59 740.78-29.74 740.78-33.89L740.78-33.89 752.4-34.38 752.35-31.54Q752.89-32.23 753.57-32.92 754.25-33.62 755.02-34.17 755.79-34.72 756.66-35.06 757.53-35.4 758.45-35.4L758.45-35.4Q759.65-35.4 760.6-35.22 761.55-35.03 762.32-34.59 763.09-34.16 763.68-33.39 764.26-32.62 764.7-31.45L764.7-31.45Q765.48-32.3 766.28-33.03 767.07-33.76 767.95-34.29 768.83-34.81 769.85-35.11 770.88-35.4 772.12-35.4L772.12-35.4Q774.49-35.4 776.15-34.48 777.81-33.57 778.92-32.06 780.04-30.54 780.66-28.59 781.28-26.64 781.6-24.54 781.91-22.44 782-20.36 782.09-18.29 782.09-16.55Z" opacity="1" transform="matrix(1,0,0,1,0,0)" fill="#ffffff" class="undefined-text-1" data-fill-palette-color="secondary" id="text-1"></path></svg></g></svg></g></svg></g></svg></g><g transform="matrix(1,0,0,1,0,0.2055831566563313)"><svg viewBox="0 0 63.630665112864904 82.23326266253437" height="82.23326266253437" width="63.630665112864904"><g><svg xmlns="http://www.w3.org/2000/svg" xmlns:xlink="http://www.w3.org/1999/xlink" version="1.1" x="0" y="0" viewBox="12.982999801635742 1 75.68599700927734 97.81300354003906" enable-background="new 0 0 100 100" xml:space="preserve" height="82.23326266253437" width="63.630665112864904" class="icon-icon-0" data-fill-palette-color="accent" id="icon-0"><g fill="#6936f5" data-fill-palette-color="accent"><polygon fill-rule="evenodd" clip-rule="evenodd" points="12.983,10.59 30.001,98.813 24.129,39.764 53.15,37.872 53.096,27.989    64.549,1 53.622,18.977  " fill="#ffffff" data-fill-palette-color="accent"></polygon><polygon fill-rule="evenodd" clip-rule="evenodd" points="59.389,54.548 64.549,1.007 55.809,40.723 36.197,41.768 37.767,62.23    30.001,98.813 42.058,58.914  " fill="#ffffff" data-fill-palette-color="accent"></polygon><polygon fill-rule="evenodd" clip-rule="evenodd" points="62.8,67.182 63.349,56.729 47.37,60.484 47.338,72.281 30.001,98.813    51.681,71.197  " fill="#ffffff" data-fill-palette-color="accent"></polygon><polygon fill-rule="evenodd" clip-rule="evenodd" points="65.711,62.394 80.552,57.663 82.061,45.131 66.162,47.226  " fill="#ffffff" data-fill-palette-color="accent"></polygon><polygon fill-rule="evenodd" clip-rule="evenodd" points="72.07,44.502 83.058,43.085 84.639,32.807 76.56,32.434 64.549,1    72.979,31.967  " fill="#ffffff" data-fill-palette-color="accent"></polygon><polygon fill-rule="evenodd" clip-rule="evenodd" points="87.413,31.294 88.669,21.788 79.125,19.094 64.549,1 79.032,23.437    78.61,30.437  " fill="#ffffff" data-fill-palette-color="accent"></polygon></g></svg></g></svg></g></svg></g></svg></g><defs></defs></svg><rect width="395.52" height="66.48929730208147" fill="none" stroke="none" visibility="hidden"></rect></g></svg></g></svg>